<svg width="108" height="108" viewBox="0 0 108 108" fill="none" xmlns="http://www.w3.org/2000/svg">
<path d="M54.2795 40.9752C62.8974 40.9752 69.8836 33.989 69.8836 25.371C69.8836 16.7531 62.8974 9.76685 54.2795 9.76685C45.6615 9.76685 38.6753 16.7531 38.6753 25.371C38.6753 33.989 45.6615 40.9752 54.2795 40.9752Z" stroke="white" stroke-width="10.6667" stroke-linecap="round" stroke-linejoin="round"/>
<path d="M9.69629 92.246C9.69629 72.5469 27.6611 56.5793 49.8213 56.5793" stroke="white" stroke-width="10.6667" stroke-linecap="round" stroke-linejoin="round"/>
<path d="M76.5713 96.7043C87.6515 96.7043 96.6338 87.7221 96.6338 76.6418C96.6338 65.5616 87.6515 56.5793 76.5713 56.5793C65.4911 56.5793 56.5088 65.5616 56.5088 76.6418C56.5088 87.7221 65.4911 96.7043 76.5713 96.7043Z" stroke="white" stroke-width="10.6667"/>
<path d="M74.3423 69.9543V78.871H83.259" stroke="white" stroke-width="10.6667" stroke-linecap="round" stroke-linejoin="round"/>
</svg>
